<?xml version="1.0" standalone="no"?>
<!DOCTYPE svg PUBLIC "-//W3C//DTD SVG 20010904//EN"
 "http://www.w3.org/TR/2001/REC-SVG-20010904/DTD/svg10.dtd">
<svg version="1.0" xmlns="http://www.w3.org/2000/svg"
 width="400.000000pt" height="400.000000pt" viewBox="0 0 400.000000 400.000000"
 preserveAspectRatio="xMidYMid meet">

<g transform="translate(0.000000,400.000000) scale(0.100000,-0.100000)"
fill="#000000" stroke="none">
<path d="M2461 2825 c-94 -21 -173 -62 -301 -159 -141 -106 -300 -188 -425
-217 -77 -18 -109 -20 -220 -16 -143 6 -246 29 -444 97 -63 22 -116 38 -118
36 -7 -7 242 -105 332 -131 112 -32 247 -42 350 -26 162 27 300 89 523 238
185 124 238 144 398 151 122 5 185 -8 278 -55 188 -95 289 -378 203 -566 -30
-66 -108 -149 -188 -200 -30 -19 -115 -67 -189 -107 -204 -109 -261 -164 -259
-245 1 -22 3 -31 6 -20 18 83 74 132 253 218 257 123 354 198 412 315 31 63
33 73 33 177 0 94 -4 122 -28 192 -31 90 -85 172 -144 219 -123 99 -300 136
-472 99z"/>
<path d="M710 2644 c0 -14 119 -184 192 -275 209 -261 458 -465 666 -548 59
-24 70 -33 90 -71 55 -108 -5 -250 -120 -285 -186 -55 -354 -10 -502 133 -75
73 -148 170 -263 352 -51 80 -103 158 -116 174 l-24 29 -21 -35 c-58 -94 -261
-250 -490 -378 l-114 -63 119 -24 c289 -59 529 -175 768 -374 50 -42 189 -173
310 -293 121 -120 255 -246 298 -281 103 -83 221 -148 337 -188 95 -31 96 -32
295 -31 173 0 212 3 289 22 176 44 299 113 416 231 67 69 118 138 271 372 97
149 147 202 206 218 53 15 173 13 268 -4 114 -21 115 -20 59 30 -88 76 -128
156 -155 310 -15 89 -40 137 -82 164 -46 28 -66 27 -40 -1 32 -36 40 -58 58
-154 22 -122 61 -199 136 -268 33 -31 57 -56 52 -56 -4 0 -48 7 -98 15 -107
18 -219 19 -266 4 -56 -19 -95 -65 -233 -274 -186 -281 -274 -370 -448 -449
-185 -85 -467 -108 -676 -56 -101 26 -221 86 -324 162 -46 34 -189 165 -318
293 -129 127 -269 258 -310 292 -218 176 -461 293 -705 339 -50 9 -97 19 -105
21 -8 2 26 21 75 42 226 95 320 161 427 301 32 42 17 56 151 -145 248 -371
387 -475 635 -475 118 0 167 15 218 66 96 96 98 285 3 331 -13 6 -67 32 -119
56 -229 109 -576 432 -752 699 -49 75 -58 86 -58 72z"/>
<path d="M3221 1680 c-19 -11 -9 -45 14 -45 13 0 21 8 23 21 3 23 -17 37 -37
24z"/>
</g>
</svg>
